<svg width="36" height="30" viewBox="0 0 36 30" fill="none" xmlns="http://www.w3.org/2000/svg">
<path id="User" d="M18 25.8C13.5 25.8 9.522 23.88 7.2 21C7.254 18 14.4 16.35 18 16.35C21.6 16.35 28.746 18 28.8 21C27.6102 22.4768 26.0028 23.6871 24.1194 24.5241C22.236 25.3612 20.1345 25.7993 18 25.8ZM18 4.5C19.4322 4.5 20.8057 4.97411 21.8184 5.81802C22.8311 6.66193 23.4 7.80653 23.4 9C23.4 10.1935 22.8311 11.3381 21.8184 12.182C20.8057 13.0259 19.4322 13.5 18 13.5C16.5678 13.5 15.1943 13.0259 14.1816 12.182C13.1689 11.3381 12.6 10.1935 12.6 9C12.6 7.80653 13.1689 6.66193 14.1816 5.81802C15.1943 4.97411 16.5678 4.5 18 4.5ZM18 0C15.6362 0 13.2956 0.387987 11.1117 1.14181C8.92784 1.89563 6.94353 3.00052 5.27208 4.3934C1.89642 7.20644 0 11.0218 0 15C0 18.9782 1.89642 22.7936 5.27208 25.6066C6.94353 26.9995 8.92784 28.1044 11.1117 28.8582C13.2956 29.612 15.6362 30 18 30C22.7739 30 27.3523 28.4196 30.7279 25.6066C34.1036 22.7936 36 18.9782 36 15C36 6.705 27.9 0 18 0Z" fill="white"/>
</svg>
